<svg xmlns="http://www.w3.org/2000/svg" viewBox="0 0 200 200" width="512" height="512">
  <defs>
    
    <radialGradient id="jadeBody" cx="45%" cy="40%" r="55%">
      <stop offset="0%" stop-color="#ff6b6b" stop-opacity="0.78"></stop>
      <stop offset="40%" stop-color="#e63946" stop-opacity="0.88"></stop>
      <stop offset="75%" stop-color="#c1121f" stop-opacity="0.92"></stop>
      <stop offset="100%" stop-color="#7a0010" stop-opacity="0.96"></stop>
    </radialGradient>
    
    
    <radialGradient id="jadeRim" cx="50%" cy="50%" r="50%">
      <stop offset="72%" stop-color="#c1121f" stop-opacity="0"></stop>
      <stop offset="90%" stop-color="#5a0008" stop-opacity="0.65"></stop>
      <stop offset="100%" stop-color="#3d0000" stop-opacity="0.85"></stop>
    </radialGradient>
    
    
    <radialGradient id="guwenHighlight" cx="35%" cy="30%" r="50%">
      <stop offset="0%" stop-color="#ffffff" stop-opacity="0.75"></stop>
      <stop offset="100%" stop-color="#ffcccc" stop-opacity="0"></stop>
    </radialGradient>
    
    
    <mask id="biMask">
      <rect width="200" height="200" fill="white"></rect>
      <circle cx="100" cy="100" r="32" fill="black"></circle>
    </mask>
  </defs>

  
  <circle cx="100" cy="100" r="88" fill="url(#jadeBody)" stroke="#5a0008" stroke-width="2.2" mask="url(#biMask)"></circle>
  
  
  <circle cx="100" cy="100" r="88" fill="url(#jadeRim)" mask="url(#biMask)"></circle>

  
  <circle cx="100" cy="100" r="82" fill="none" stroke="#ff9999" stroke-width="1.3" stroke-opacity="0.5"></circle>
  
  
  <circle cx="100" cy="100" r="36" fill="none" stroke="#ff9999" stroke-width="1.4" stroke-opacity="0.55"></circle>
  <circle cx="100" cy="100" r="32" fill="none" stroke="#5a0008" stroke-width="1.8"></circle>

  
  
  <g fill="#ff8a8a" fill-opacity="0.6" stroke="#c1121f" stroke-width="0.35" stroke-opacity="0.45">
    
    <circle cx="100" cy="48" r="2.8"></circle>
    <circle cx="126" cy="56" r="2.8"></circle>
    <circle cx="141" cy="78" r="2.8"></circle>
    <circle cx="141" cy="122" r="2.8"></circle>
    <circle cx="126" cy="144" r="2.8"></circle>
    <circle cx="100" cy="152" r="2.8"></circle>
    <circle cx="74" cy="144" r="2.8"></circle>
    <circle cx="59" cy="122" r="2.8"></circle>
    <circle cx="59" cy="78" r="2.8"></circle>
    <circle cx="74" cy="56" r="2.8"></circle>
    
    
    <circle cx="100" cy="36" r="3.0"></circle>
    <circle cx="124" cy="42" r="3.0"></circle>
    <circle cx="143" cy="58" r="3.0"></circle>
    <circle cx="154" cy="82" r="3.0"></circle>
    <circle cx="154" cy="118" r="3.0"></circle>
    <circle cx="143" cy="142" r="3.0"></circle>
    <circle cx="124" cy="158" r="3.0"></circle>
    <circle cx="100" cy="164" r="3.0"></circle>
    <circle cx="76" cy="158" r="3.0"></circle>
    <circle cx="57" cy="142" r="3.0"></circle>
    <circle cx="46" cy="118" r="3.0"></circle>
    <circle cx="46" cy="82" r="3.0"></circle>
    <circle cx="57" cy="58" r="3.0"></circle>
    <circle cx="76" cy="42" r="3.0"></circle>
    
    
    <circle cx="100" cy="24" r="3.1"></circle>
    <circle cx="125" cy="29" r="3.1"></circle>
    <circle cx="146" cy="42" r="3.1"></circle>
    <circle cx="160" cy="62" r="3.1"></circle>
    <circle cx="166" cy="88" r="3.1"></circle>
    <circle cx="166" cy="112" r="3.1"></circle>
    <circle cx="160" cy="138" r="3.1"></circle>
    <circle cx="146" cy="158" r="3.1"></circle>
    <circle cx="125" cy="171" r="3.1"></circle>
    <circle cx="100" cy="176" r="3.1"></circle>
    <circle cx="75" cy="171" r="3.1"></circle>
    <circle cx="54" cy="158" r="3.1"></circle>
    <circle cx="40" cy="138" r="3.1"></circle>
    <circle cx="34" cy="112" r="3.1"></circle>
    <circle cx="34" cy="88" r="3.1"></circle>
    <circle cx="40" cy="62" r="3.1"></circle>
    <circle cx="54" cy="42" r="3.1"></circle>
    <circle cx="75" cy="29" r="3.1"></circle>
  </g>

  
  <g fill="url(#guwenHighlight)">
    
    <circle cx="99" cy="46.5" r="1.25"></circle>
    <circle cx="125" cy="54.5" r="1.25"></circle>
    <circle cx="140" cy="76.5" r="1.25"></circle>
    <circle cx="140" cy="120.5" r="1.25"></circle>
    <circle cx="125" cy="142.5" r="1.25"></circle>
    <circle cx="99" cy="150.5" r="1.25"></circle>
    <circle cx="73" cy="142.5" r="1.25"></circle>
    <circle cx="58" cy="120.5" r="1.25"></circle>
    <circle cx="58" cy="76.5" r="1.25"></circle>
    <circle cx="73" cy="54.5" r="1.25"></circle>
    
    
    <circle cx="99" cy="34.5" r="1.35"></circle>
    <circle cx="123" cy="40.5" r="1.35"></circle>
    <circle cx="142" cy="56.5" r="1.35"></circle>
    <circle cx="153" cy="80.5" r="1.35"></circle>
    <circle cx="153" cy="116.5" r="1.35"></circle>
    <circle cx="142" cy="140.5" r="1.35"></circle>
    <circle cx="123" cy="156.5" r="1.35"></circle>
    <circle cx="99" cy="162.5" r="1.35"></circle>
    <circle cx="75" cy="156.5" r="1.35"></circle>
    <circle cx="56" cy="140.5" r="1.35"></circle>
    <circle cx="45" cy="116.5" r="1.35"></circle>
    <circle cx="45" cy="80.5" r="1.35"></circle>
    <circle cx="56" cy="56.5" r="1.35"></circle>
    <circle cx="75" cy="40.5" r="1.35"></circle>
  </g>

  
  <ellipse cx="78" cy="70" rx="28" ry="20" fill="#ffffff" fill-opacity="0.15" transform="rotate(-22 78 70)" mask="url(#biMask)"></ellipse>
  <ellipse cx="72" cy="64" rx="8" ry="5.5" fill="#ffffff" fill-opacity="0.28" transform="rotate(-18 72 64)" mask="url(#biMask)"></ellipse>
</svg>
